#!OML:ASF F:\VICON\USERDATA\INSTALL\rory3\rory3.ASF
:FULLY-SPECIFIED
:DEGREES
34
root 0.00930387 16.988 -14.7719 1.45024 4.12229 -0.118403
lowerback 17.4434 0.345406 -1.40004
upperback 0.270594 0.196013 0.188719
thorax -9.52453 0.164344 0.951331
lowerneck -20.0664 -5.0044 -1.28206
upperneck 8.13853 -7.07732 5.36023
head 5.94157 -3.03676 1.15581
rclavicle -6.51641e-015 -9.49197e-015
rhumerus -54.4727 8.11655 -99.607
rradius 103.363
rwrist -11.0001
rhand -12.1117 36.0865
rfingers 7.12502
rthumb 13.9494 6.5744
lclavicle -6.51641e-015 -9.49197e-015
lhumerus -36.1212 -14.6177 97.4724
lradius 118.81
lwrist 32.6686
lhand -29.2242 -2.08385
lfingers 7.12502
lthumb -2.56821 27.8804
rfemur -36.2053 -7.06968 19.9956
rtibia 114.261
rfoot 13.0463 -4.6941
rtoes 10.7718
lfemur -10.1516 -1.31346 -27.0376
ltibia 45.4288
lfoot -26.1391 7.1374
ltoes -9.76691
35
root 0.015412 17.0081 -14.3255 1.30611 3.57165 0.358911
lowerback 17.8717 0.385661 -2.20762
upperback 0.292708 0.0800382 0.229085
thorax -9.7403 0.149897 1.48498
lowerneck -20.1747 -4.81675 -1.45523
upperneck 8.16313 -6.78785 5.40434
head 5.96458 -2.89626 1.2274
rclavicle 7.21837e-015 -1.0312e-014
rhumerus -55.4929 8.47701 -99.5282
rradius 104.167
rwrist -12.319
rhand -11.779 36.3384
rfingers 7.12502
rthumb 14.27 6.84872
lclavicle 7.21837e-015 -1.0312e-014
lhumerus -34.7589 -14.7371 97.1659
lradius 120.126
lwrist 32.5906
lhand -29.6276 -1.8771
lfingers 7.12502
lthumb -2.95781 28.0821
rfemur -38.4057 -7.0139 19.5841
rtibia 113.351
rfoot 11.9579 -3.95259
rtoes 13.0384
lfemur -7.71574 -0.818484 -27.6151
ltibia 44.3135
lfoot -25.2989 7.63147
ltoes -11.5838
36
root 0.0279461 17.0443 -13.8716 1.44605 3.56059 0.720811
lowerback 17.9979 0.154782 -2.71452
upperback 0.24265 -0.323428 0.33766
thorax -9.84669 -0.0126201 1.99783
lowerneck -20.6642 -4.59037 -1.57559
upperneck 8.55667 -6.45518 5.28654
head 6.15616 -2.7318 1.23477
rclavicle -1.70831e-015 -9.13167e-015
rhumerus -56.4564 9.06341 -99.3511
rradius 105.081
rwrist -14.0376
rhand -11.2079 36.1044
rfingers 7.12502
rthumb 14.8203 6.6544
lclavicle -1.70831e-015 -9.13167e-015
lhumerus -33.4521 -14.6521 96.8297
lradius 121.539
lwrist 32.6505
lhand -29.7386 -0.329932
lfingers 7.12502
lthumb -3.06498 29.6278
rfemur -40.4906 -7.42228 19.3755
rtibia 111.908
rfoot 10.7598 -3.18585
rtoes 13.1485
lfemur -5.61648 -0.808918 -28.0204
ltibia 43.2254
lfoot -24.3048 7.31602
ltoes -13.893
37
root 0.0364946 17.103 -13.4026 1.78951 4.04509 0.673441
lowerback 17.965 -0.329751 -2.71648
upperback -0.0356244 -0.946964 0.54215
thorax -10.0986 -0.295117 2.38721
lowerneck -20.7256 -4.33414 -1.59491
upperneck 8.97662 -6.09227 5.03366
head 6.28002 -2.56943 1.19434
rclavicle -2.01207e-014 1.67973e-014
rhumerus -57.7858 9.54425 -99.3234
rradius 105.966
rwrist -15.3051
rhand -10.8096 36.4214
rfingers 7.12502
rthumb 15.2039 7.00001
lclavicle -2.01207e-014 1.67973e-014
lhumerus -32.7016 -14.4998 96.4665
lradius 122.855
lwrist 32.8836
lhand -28.7394 -1.08148
lfingers 7.12502
lthumb -2.10002 28.8879
rfemur -42.413 -8.1008 19.8854
rtibia 109.896
rfoot 9.39514 -2.74324
rtoes 12.0009
lfemur -3.85499 -1.25727 -27.8728
ltibia 42.1668
lfoot -23.0173 6.1521
ltoes -17.2733
38
root 0.0448964 17.1938 -12.9096 2.22612 4.78434 0.485094
lowerback 17.5653 -0.902412 -2.53568
upperback -0.245757 -1.63248 0.810442
thorax -10.0603 -0.620675 2.7479
lowerneck -20.8499 -4.12661 -1.82074
upperneck 9.41836 -5.76955 5.00231
head 6.43728 -2.41442 1.25262
rclavicle 7.35503e-015 1.45113e-014
rhumerus -58.9969 9.86574 -99.1623
rradius 106.911
rwrist -15.9227
rhand -10.7785 36.7954
rfingers 7.12502
rthumb 15.2339 7.37634
lclavicle 7.35503e-015 1.45113e-014
lhumerus -31.915 -14.5617 96.1203
lradius 124.246
lwrist 33.7887
lhand -27.4879 -1.24055
lfingers 7.12502
lthumb -0.891338 28.7373
rfemur -44.1636 -8.85851 20.7
rtibia 107.227
rfoot 8.41974 -2.42576
rtoes 11.1779
lfemur -2.21344 -1.76041 -27.4387
ltibia 41.0519
lfoot -21.1978 4.67102
ltoes -20.2651
39
root 0.0572387 17.3011 -12.4004 2.63883 5.21686 0.418754
lowerback 16.8741 -1.33796 -2.49902
upperback -0.253001 -2.16664 1.00703
thorax -9.63541 -0.881997 3.04978
lowerneck -21.2102 -3.92798 -1.81988
upperneck 9.63491 -5.49739 4.91605
head 6.55264 -2.281 1.25071
rclavicle -5.44173e-015 -8.74653e-015
rhumerus -59.8098 10.0152 -98.9679
rradius 107.808
rwrist -16.1455
rhand -10.7334 37.1849
rfingers 7.12502
rthumb 15.2773 7.76914
lclavicle -5.44173e-015 -8.74653e-015
lhumerus -30.8366 -14.8302 95.7392
lradius 125.799
lwrist 35.2969
lhand -27.6901 -0.508924
lfingers 7.12502
lthumb -1.08658 29.4681
rfemur -45.4743 -9.17104 21.3443
rtibia 104.068
rfoot 7.61726 -1.99177
rtoes 8.57649
lfemur -0.507558 -1.94539 -27.1063
ltibia 39.8232
lfoot -19.0194 3.18142
ltoes -22.459
40
root 0.0705926 17.417 -11.8862 2.8409 4.93543 0.349006
lowerback 16.5399 -1.47569 -2.49211
upperback -0.32359 -2.33186 1.10854
thorax -9.50843 -0.961461 3.18414
lowerneck -21.4451 -3.77908 -1.50181
upperneck 9.75859 -5.33815 4.57281
head 6.60515 -2.21692 1.10438
rclavicle -4.73853e-014 1.13307e-014
rhumerus -60.5478 9.89316 -98.8135
rradius 108.442
rwrist -16.0522
rhand -10.6313 37.4498
rfingers 7.12502
rthumb 15.3757 8.04157
lclavicle -4.73853e-014 1.13307e-014
lhumerus -30.6444 -15.1472 95.2997
lradius 127.062
lwrist 37.0171
lhand -27.7103 -2.50137
lfingers 7.12502
lthumb -1.10608 27.4755
rfemur -46.2642 -8.56213 21.8955
rtibia 100.489
rfoot 6.68368 -1.80928
rtoes 6.2477
lfemur 1.52983 -1.53386 -26.8182
ltibia 38.381
lfoot -16.5515 1.39259
ltoes -24.6842
41
root 0.0873493 17.5415 -11.3736 3.15482 4.36023 0.051805
lowerback 16.2416 -1.55371 -2.24593
upperback -0.598001 -2.36912 1.274
thorax -9.64146 -0.981221 3.22863
lowerneck -21.4327 -3.63092 -1.46283
upperneck 10.0385 -5.14389 4.44569
head 6.68354 -2.12883 1.07873
rclavicle -3.62782e-015 -1.20265e-014
rhumerus -61.5351 9.7254 -98.6957
rradius 109.056
rwrist -15.9638
rhand -10.5558 37.031
rfingers 7.12502
rthumb 15.4483 7.62833
lclavicle -3.62782e-015 -1.20265e-014
lhumerus -30.6079 -15.4607 94.9471
lradius 128.146
lwrist 38.4908
lhand -27.241 -3.87101
lfingers 7.12502
lthumb -0.65286 26.1077
rfemur -47.0714 -7.50886 22.6554
rtibia 96.5662
rfoot 5.75941 -2.00458
rtoes 4.87115
lfemur 3.346 -1.05229 -26.3521
ltibia 36.7105
lfoot -13.3321 -0.84239
ltoes -26.3752
42
root 0.111103 17.6681 -10.8535 3.4128 3.62003 -0.207008
lowerback 15.7807 -1.5873 -1.95036
upperback -0.812035 -2.34047 1.39416
thorax -9.623 -0.978245 3.17102
lowerneck -21.3448 -3.46344 -1.468
upperneck 10.3639 -4.9247 4.39165
head 6.76783 -2.02447 1.08763
rclavicle -3.14825e-014 1.70955e-014
rhumerus -62.4423 9.42153 -98.5661
rradius 109.551
rwrist -15.63
rhand -10.4233 36.6129
rfingers 7.12502
rthumb 15.576 7.22012
lclavicle -3.14825e-014 1.70955e-014
lhumerus -30.822 -15.7669 94.5836
lradius 129.159
lwrist 39.6767
lhand -26.7814 -5.06064
lfingers 7.12502
lthumb -0.208953 24.919
rfemur -47.5618 -6.36792 23.257
rtibia 92.3396
rfoot 4.65931 -2.30945
rtoes 1.17799
lfemur 5.01413 -0.441854 -25.9904
ltibia 34.7873
lfoot -9.23978 -3.42284
ltoes -27.1637
43
root 0.139918 17.7732 -10.3304 3.53619 2.66579 -0.165933
lowerback 15.3361 -1.56251 -2.00122
upperback -0.907193 -2.30306 1.48595
thorax -9.47041 -0.958668 3.27402
lowerneck -21.2635 -3.28826 -1.40183
upperneck 10.4601 -4.66516 4.09384
head 6.76815 -1.92436 1.01183
rclavicle 2.19906e-014 -1.15295e-014
rhumerus -63.3289 9.27617 -98.2931
rradius 109.988
rwrist -15.3027
rhand -10.3947 36.7197
rfingers 7.12502
rthumb 15.6035 7.32904
lclavicle 2.19906e-014 -1.15295e-014
lhumerus -30.9413 -15.8089 94.1804
lradius 130.045
lwrist 40.7093
lhand -26.1273 -5.29982
lfingers 7.12502
lthumb 0.422788 24.6795
rfemur -47.7473 -5.21544 23.4164
rtibia 87.9814
rfoot 3.46311 -2.29612
rtoes -0.844244
lfemur 7.19866 0.179956 -26.0604
ltibia 32.6816
lfoot -4.79997 -5.67646
ltoes -27.996
44
root 0.168655 17.8863 -9.79143 3.41662 1.77511 -0.152183
lowerback 15.1572 -1.56709 -2.04821
upperback -0.978997 -2.30447 1.6075
thorax -9.44021 -0.953899 3.4271
lowerneck -21.2095 -3.10227 -1.50821
upperneck 10.7052 -4.37063 3.93991
head 6.82931 -1.79891 1.01345
rclavicle -1.72197e-014 4.17448e-015
rhumerus -64.2699 9.17395 -97.9721
rradius 110.396
rwrist -14.8671
rhand -10.3712 36.953
rfingers 7.12502
rthumb 15.6261 7.56411
lclavicle -1.72197e-014 4.17448e-015
lhumerus -31.1857 -15.8812 93.8685
lradius 130.829
lwrist 41.1053
lhand -25.8928 -4.71997
lfingers 7.12502
lthumb 0.649295 25.2588
rfemur -47.3064 -4.29395 23.5576
rtibia 83.3314
rfoot 1.65774 -0.954216
rtoes -3.71815
lfemur 9.37582 0.644883 -26.1663
ltibia 30.4132
lfoot 0.912512 -8.11755
ltoes -26.5242
45
root 0.19753 17.9849 -9.25036 3.2753 0.954109 -0.20042
lowerback 14.967 -1.56622 -1.91753
upperback -1.09526 -2.27189 1.67016
thorax -9.46377 -0.941744 3.40888
lowerneck -21.2192 -2.96452 -1.74076
upperneck 11.3125 -4.15902 4.03455
head 7.03143 -1.69013 1.10482
rclavicle 3.52097e-014 -9.34288e-015
rhumerus -65.1434 8.88936 -97.7542
rradius 110.736
rwrist -14.5656
rhand -10.439 37.2226
rfingers 7.12502
rthumb 15.5609 7.82859
lclavicle 3.52097e-014 -9.34288e-015
lhumerus -31.7368 -16.0468 93.6259
lradius 131.482
lwrist 41.2511
lhand -25.5043 -3.63548
lfingers 7.12502
lthumb 1.0245 26.3418
rfemur -46.6785 -3.43447 23.7499
rtibia 78.4967
rfoot 1.51772 -1.34541
rtoes -3.59558
lfemur 11.9397 0.657898 -26.2993
ltibia 28.1151
lfoot 6.18341 -9.6973
ltoes -26.8245
46
root 0.223306 18.0776 -8.71133 3.26525 0.123071 -0.448852
lowerback 14.6522 -1.56598 -1.55493
upperback -1.27138 -2.19641 1.74832
thorax -9.49215 -0.920128 3.2629
lowerneck -21.0953 -2.82252 -1.83379
upperneck 11.8795 -3.96212 4.01649
head 7.19346 -1.59608 1.13748
rclavicle 1.31198e-014 0
rhumerus -65.8548 8.56444 -97.5175
rradius 110.906
rwrist -14.3797
rhand -10.3278 37.0264
rfingers 7.12502
rthumb 15.668 7.64076
lclavicle 1.31198e-014 0
lhumerus -32.416 -16.224 93.4108
lradius 131.877
lwrist 41.3513
lhand -25.0881 -3.06004
lfingers 7.12502
lthumb 1.42645 26.9149
rfemur -46.0169 -2.39156 24.1288
rtibia 73.3706
rfoot 1.08417 -2.04204
rtoes -4.2021
lfemur 13.9849 0.39946 -26.3591
ltibia 26.0202
lfoot 11.4721 -10.8777
ltoes -26.0326
47
root 0.244651 18.1701 -8.17973 3.52127 -0.449185 -0.930083
lowerback 14.2571 -1.59793 -0.953229
upperback -1.53518 -2.11668 1.89422
thorax -9.5759 -0.905833 3.05376
lowerneck -20.8072 -2.67369 -1.73244
upperneck 12.1286 -3.77265 3.83867
head 7.21662 -1.51842 1.08783
rclavicle -1.23495e-014 8.34896e-015
rhumerus -66.5859 8.05749 -97.2079
rradius 111.162
rwrist -14.203
rhand -10.4073 36.9154
rfingers 7.12502
rthumb 15.5914 7.52385
lclavicle -1.23495e-014 8.34896e-015
lhumerus -33.1215 -16.6497 93.3892
lradius 132.024
lwrist 40.2859
lhand -25.0818 -3.43197
lfingers 7.12502
lthumb 1.43255 26.543
rfemur -45.4339 -1.52639 24.7821
rtibia 67.9621
rfoot 0.82991 -2.38881
rtoes -5.21399
lfemur 15.3537 -0.196332 -26.1475
ltibia 24.3256
lfoot 16.2925 -11.5337
ltoes -22.7364
48
root 0.265858 18.2628 -7.64855 3.96387 -0.910783 -1.34671
lowerback 13.7371 -1.65753 -0.456095
upperback -1.82681 -2.09456 2.05715
thorax -9.60926 -0.9152 2.93095
lowerneck -20.3665 -2.56621 -1.60532
upperneck 12.1003 -3.6264 3.60325
head 7.12305 -1.4708 1.01146
rclavicle -3.95085e-015 1.55052e-014
rhumerus -67.2611 7.63134 -96.9076
rradius 111.437
rwrist -13.9344
rhand -10.7434 37.3774
rfingers 7.12502
rthumb 15.2676 7.96091
lclavicle -3.95085e-015 1.55052e-014
lhumerus -33.9675 -17.1256 93.528
lradius 132.257
lwrist 38.7661
lhand -25.2 -3.81816
lfingers 7.12502
lthumb 1.3184 26.1575
rfemur -44.8617 -0.843255 25.3912
rtibia 62.4131
rfoot 0.702442 -2.27635
rtoes -7.09189
lfemur 16.2547 -1.1285 -26.1294
ltibia 23.2271
lfoot 20.3132 -12.3898
ltoes -19.4512
